<svg xmlns="http://www.w3.org/2000/svg" width="40" height="40" fill="none" viewBox="0 0 40 40"><path fill="#BEF264" d="M0 6.66667C0 2.98477 2.98477 0 6.66667 0H33.3333C37.0152 0 40 2.98477 40 6.66667V33.3333C40 37.0152 37.0152 40 33.3333 40H6.66667C2.98477 40 0 37.0152 0 33.3333V6.66667Z"/><rect width="1.667" height="10" x="19.167" y="6.667" fill="#022C22" rx=".833"/><rect width="1.667" height="10" x="19.167" y="23.333" fill="#022C22" rx=".833"/><rect width="1.667" height="10" x="28.839" y="9.983" fill="#022C22" rx=".833" transform="rotate(45 28.8387 9.9826)"/><rect width="1.667" height="10" x="17.054" y="21.768" fill="#022C22" rx=".833" transform="rotate(45 17.0536 21.7677)"/><rect width="1.667" height="10" x="23.333" y="20.833" fill="#022C22" rx=".833" transform="rotate(-90 23.3334 20.8333)"/><rect width="1.667" height="10" x="6.667" y="20.833" fill="#022C22" rx=".833" transform="rotate(-90 6.66663 20.8333)"/><rect width="1.667" height="10" x="21.768" y="22.946" fill="#022C22" rx=".833" transform="rotate(-45 21.7678 22.9463)"/><rect width="1.667" height="10" x="9.983" y="11.161" fill="#022C22" rx=".833" transform="rotate(-45 9.98291 11.1611)"/></svg>